<?xml version="1.0" encoding="utf-8"?>
<!-- Generator: Adobe Illustrator 24.0.3, SVG Export Plug-In . SVG Version: 6.00 Build 0)  -->
<svg version="1.1" id="navigation" xmlns="http://www.w3.org/2000/svg" xmlns:xlink="http://www.w3.org/1999/xlink" x="0px" y="0px"
	 width="56px" height="532px" viewBox="0 0 56 532" style="enable-background:new 0 0 56 532;" xml:space="preserve" preserveAspectRatio="none">
<style type="text/css">
	.st0{fill:#393B3D;}
	.st1{fill:#7B7C7D;}
	.st2{fill:#767879;}
</style>
<g id="notification-hover">
	<path class="st0" d="M48,450H36c-3.3,0-6,2.7-6,6v12c0,3.3,2.7,6,6,6h12c3.3,0,6-2.7,6-6v-12C54,452.7,51.3,450,48,450z M49,469H35
		c-0.6,0-1-0.4-1-1s0.4-1,1-1h14c0.6,0,1,0.4,1,1S49.6,469,49,469z M49,465H35c-0.6,0-1-0.4-1-1s0.4-1,1-1h14c0.6,0,1,0.4,1,1
		S49.6,465,49,465z M49,461H35c-0.6,0-1-0.4-1-1s0.4-1,1-1h14c0.6,0,1,0.4,1,1S49.6,461,49,461z M49,457H35c-0.6,0-1-0.4-1-1
		s0.4-1,1-1h14c0.6,0,1,0.4,1,1S49.6,457,49,457z"/>
</g>
<g id="notification_1_">
	<g>
		<path class="st0" d="M20,474H8c-3.4,0-6-2.6-6-6v-12c0-3.4,2.6-6,6-6h12c3.4,0,6,2.6,6,6v12C26,471.4,23.4,474,20,474z M8,452
			c-2.2,0-4,1.8-4,4v12c0,2.2,1.8,4,4,4h12c2.2,0,4-1.8,4-4v-12c0-2.2-1.8-4-4-4H8z"/>
	</g>
	<g>
		<path class="st0" d="M21,461H7c-0.6,0-1-0.4-1-1s0.4-1,1-1h14c0.6,0,1,0.4,1,1S21.6,461,21,461z"/>
	</g>
	<g>
		<path class="st0" d="M21,465H7c-0.6,0-1-0.4-1-1s0.4-1,1-1h14c0.6,0,1,0.4,1,1S21.6,465,21,465z"/>
	</g>
	<g>
		<path class="st0" d="M21,469H7c-0.6,0-1-0.4-1-1s0.4-1,1-1h14c0.6,0,1,0.4,1,1S21.6,469,21,469z"/>
	</g>
	<g>
		<path class="st0" d="M21,457H7c-0.6,0-1-0.4-1-1s0.4-1,1-1h14c0.6,0,1,0.4,1,1S21.6,457,21,457z"/>
	</g>
</g>
<g id="search-hover">
	<g>
		<path class="st0" d="M40,413c-5,0-9-4-9-9s4-9,9-9s9,4,9,9S45,413,40,413z M40,397c-3.9,0-7,3.1-7,7s3.1,7,7,7s7-3.1,7-7
			S43.9,397,40,397z"/>
	</g>
	<g>
		<path class="st0" d="M52,417c-0.3,0-0.5-0.1-0.7-0.3l-6-6c-0.4-0.4-0.4-1,0-1.4s1-0.4,1.4,0l6,6c0.4,0.4,0.4,1,0,1.4
			C52.5,416.9,52.3,417,52,417z"/>
	</g>
	<g>
		<path class="st0" d="M44,405c-0.6,0-1-0.4-1-1c0-1.7-1.3-3-3-3c-0.6,0-1-0.4-1-1s0.4-1,1-1c2.8,0,5,2.2,5,5
			C45,404.6,44.6,405,44,405z"/>
	</g>
</g>
<g id="search_4_">
	<g>
		<path class="st1" d="M12,413c-5,0-9-4-9-9s4-9,9-9s9,4,9,9S17,413,12,413z M12,397c-3.9,0-7,3.1-7,7s3.1,7,7,7s7-3.1,7-7
			S15.9,397,12,397z"/>
	</g>
	<g>
		<path class="st1" d="M24,417c-0.3,0-0.5-0.1-0.7-0.3l-6-6c-0.4-0.4-0.4-1,0-1.4s1-0.4,1.4,0l6,6c0.4,0.4,0.4,1,0,1.4
			C24.5,416.9,24.3,417,24,417z"/>
	</g>
	<g>
		<path class="st1" d="M16,405c-0.6,0-1-0.4-1-1c0-1.7-1.3-3-3-3c-0.6,0-1-0.4-1-1s0.4-1,1-1c2.8,0,5,2.2,5,5
			C17,404.6,16.6,405,16,405z"/>
	</g>
</g>
<g id="search_1_">
	<g>
		<path class="st1" d="M12,133c-5,0-9-4-9-9s4-9,9-9s9,4,9,9S17,133,12,133z M12,117c-3.9,0-7,3.1-7,7s3.1,7,7,7s7-3.1,7-7
			S15.9,117,12,117z"/>
	</g>
	<g>
		<path class="st1" d="M24,137c-0.3,0-0.5-0.1-0.7-0.3l-6-6c-0.4-0.4-0.4-1,0-1.4s1-0.4,1.4,0l6,6c0.4,0.4,0.4,1,0,1.4
			C24.5,136.9,24.3,137,24,137z"/>
	</g>
	<g>
		<path class="st1" d="M16,125c-0.6,0-1-0.4-1-1c0-1.7-1.3-3-3-3c-0.6,0-1-0.4-1-1s0.4-1,1-1c2.8,0,5,2.2,5,5
			C17,124.6,16.6,125,16,125z"/>
	</g>
</g>
<g id="search_2_">
	<g>
		<path class="st0" d="M40,133c-5,0-9-4-9-9s4-9,9-9s9,4,9,9S45,133,40,133z M40,117c-3.9,0-7,3.1-7,7s3.1,7,7,7s7-3.1,7-7
			S43.9,117,40,117z"/>
	</g>
	<g>
		<path class="st0" d="M52,137c-0.3,0-0.5-0.1-0.7-0.3l-6-6c-0.4-0.4-0.4-1,0-1.4s1-0.4,1.4,0l6,6c0.4,0.4,0.4,1,0,1.4
			C52.5,136.9,52.3,137,52,137z"/>
	</g>
	<g>
		<path class="st0" d="M44,125c-0.6,0-1-0.4-1-1c0-1.7-1.3-3-3-3c-0.6,0-1-0.4-1-1s0.4-1,1-1c2.8,0,5,2.2,5,5
			C45,124.6,44.6,125,44,125z"/>
	</g>
</g>
<g id="settings-on_1_">
	<path class="st0" d="M53,96h-1.2c-0.3-1.3-0.8-2.5-1.5-3.5l0.9-0.9c0.4-0.4,0.4-1,0-1.4l-1.4-1.4c-0.4-0.4-1-0.4-1.4,0l-0.9,0.9
		c-1-0.7-2.2-1.2-3.5-1.5V87c0-0.6-0.4-1-1-1h-2c-0.6,0-1,0.4-1,1v1.2c-1.3,0.3-2.5,0.8-3.5,1.5l-0.9-0.9c-0.4-0.4-1-0.4-1.4,0
		l-1.4,1.4c-0.4,0.4-0.4,1,0,1.4l0.9,0.9c-0.7,1-1.2,2.2-1.5,3.5H31c-0.6,0-1,0.4-1,1v2c0,0.6,0.4,1,1,1h1.2
		c0.3,1.3,0.8,2.5,1.5,3.5l-0.9,0.9c-0.4,0.4-0.4,1,0,1.4l1.4,1.4c0.4,0.4,1,0.4,1.4,0l0.9-0.9c1,0.7,2.2,1.2,3.5,1.5v1.2
		c0,0.6,0.4,1,1,1h2c0.6,0,1-0.4,1-1v-1.2c1.3-0.3,2.5-0.8,3.5-1.5l0.9,0.9c0.4,0.4,1,0.4,1.4,0l1.4-1.4c0.4-0.4,0.4-1,0-1.4
		l-0.9-0.9c0.7-1,1.2-2.2,1.5-3.5H53c0.6,0,1-0.4,1-1v-2C54,96.4,53.6,96,53,96z M42,104c-3.3,0-6-2.7-6-6s2.7-6,6-6s6,2.7,6,6
		S45.3,104,42,104z"/>
</g>
<g id="settings_1_">
	<g>
		<path class="st0" d="M16,110h-4c-0.6,0-1-0.4-1-1v-1.5c-0.6-0.2-1.1-0.4-1.6-0.7l-0.9,0.9c-0.4,0.4-1,0.4-1.4,0L4.2,105
			c-0.4-0.4-0.4-1,0-1.4l0.9-0.9c-0.3-0.5-0.5-1.1-0.7-1.6H3c-0.6,0-1-0.4-1-1v-4c0-0.6,0.4-1,1-1h1.5c0.2-0.6,0.4-1.1,0.7-1.6
			l-0.9-0.9c-0.4-0.4-0.4-1,0-1.4l2.7-3c0.2-0.2,0.4-0.3,0.7-0.3l0,0c0.3,0,0.5,0.1,0.7,0.3l0.9,0.9c0.5-0.3,1.1-0.5,1.6-0.7V87
			c0-0.6,0.4-1,1-1h4c0.6,0,1,0.4,1,1v1.5c0.6,0.2,1.1,0.4,1.6,0.7l0.9-0.9c0.4-0.4,1-0.4,1.4,0l2.8,2.8c0.4,0.4,0.4,1,0,1.4
			l-0.9,0.9c0.3,0.5,0.5,1.1,0.7,1.6H25c0.6,0,1,0.4,1,1v4c0,0.6-0.4,1-1,1h-1.5c-0.2,0.6-0.4,1.1-0.7,1.6l0.9,0.9
			c0.4,0.4,0.4,1,0,1.4l-2.8,2.8c-0.2,0.2-0.4,0.3-0.7,0.3l0,0c-0.3,0-0.5-0.1-0.7-0.3l-0.9-0.9c-0.5,0.3-1.1,0.5-1.6,0.7v1.5
			C17,109.6,16.6,110,16,110z M13,108h2v-1.2c0-0.5,0.3-0.9,0.8-1c0.9-0.2,1.7-0.5,2.5-1c0.4-0.2,0.9-0.2,1.2,0.1l0.8,0.8l1.4-1.4
			l-0.8-0.8c-0.3-0.3-0.4-0.8-0.1-1.2c0.5-0.8,0.8-1.6,1-2.5c0.1-0.5,0.5-0.8,1-0.8H24v-2h-1.2c-0.5,0-0.9-0.3-1-0.8
			c-0.2-0.9-0.5-1.7-1-2.5c-0.2-0.4-0.2-0.9,0.1-1.2l0.8-0.8l-1.4-1.4l-0.8,0.8c-0.3,0.3-0.8,0.4-1.2,0.1c-0.8-0.5-1.6-0.8-2.5-1
			c-0.5-0.1-0.8-0.5-0.8-1V88h-2v1.2c0,0.5-0.3,0.9-0.8,1c-0.9,0.2-1.7,0.5-2.5,1c-0.4,0.2-0.9,0.2-1.2-0.1l-0.8-0.8l-1.4,1.4
			l0.8,0.8c0.3,0.3,0.4,0.8,0.1,1.2c-0.5,0.8-0.8,1.6-1,2.5c-0.1,0.5-0.5,0.8-1,0.8H4v2h1.2c0.5,0,0.9,0.3,1,0.8
			c0.2,0.9,0.5,1.7,1,2.5c0.2,0.4,0.2,0.9-0.1,1.2l-0.8,0.8l1.4,1.4l0.8-0.8c0.3-0.3,0.8-0.4,1.2-0.1c0.8,0.5,1.6,0.8,2.5,1
			c0.5,0.1,0.8,0.5,0.8,1V108z"/>
	</g>
	<g>
		<path class="st0" d="M14,104c-3.3,0-6-2.7-6-6s2.7-6,6-6s6,2.7,6,6S17.3,104,14,104z M14,94c-2.2,0-4,1.8-4,4s1.8,4,4,4s4-1.8,4-4
			S16.2,94,14,94z"/>
	</g>
</g>
<g id="tix-on_1_">
	<path class="st0" d="M51,65h-2l-2-2v-2l-3-3L30,72l3,3h2l2,2v2l3,3l14-14L51,65z M44.7,72.7C44.5,72.9,44.3,73,44,73
		s-0.5-0.1-0.7-0.3L40,69.4l-1.3,1.3C38.5,70.9,38.3,71,38,71s-0.5-0.1-0.7-0.3c-0.4-0.4-0.4-1,0-1.4l4-4c0.4-0.4,1-0.4,1.4,0
		s0.4,1,0,1.4L41.4,68l3.3,3.3C45.1,71.7,45.1,72.3,44.7,72.7z"/>
</g>
<g id="tix_2_">
	<g>
		<path class="st0" d="M12,82c-0.3,0-0.5-0.1-0.7-0.3l-3-3C8.1,78.5,8,78.3,8,78v-1.6L7.6,76H6c-0.3,0-0.5-0.1-0.7-0.3l-3-3
			c-0.4-0.4-0.4-1,0-1.4l13-13c0.4-0.4,1-0.4,1.4,0l3,3c0.2,0.2,0.3,0.4,0.3,0.7v1.6l0.4,0.4H22c0.3,0,0.5,0.1,0.7,0.3l3,3
			c0.4,0.4,0.4,1,0,1.4l-13,13C12.5,81.9,12.3,82,12,82z M10,77.6l2,2L23.6,68l-2-2H20c-0.3,0-0.5-0.1-0.7-0.3l-1-1
			C18.1,64.5,18,64.3,18,64v-1.6l-2-2L4.4,72l2,2H8c0.3,0,0.5,0.1,0.7,0.3l1,1C9.9,75.5,10,75.7,10,76V77.6z"/>
	</g>
	<g>
		<path class="st0" d="M10,71c-0.3,0-0.5-0.1-0.7-0.3c-0.4-0.4-0.4-1,0-1.4l4-4c0.4-0.4,1-0.4,1.4,0s0.4,1,0,1.4l-4,4
			C10.5,70.9,10.3,71,10,71z"/>
	</g>
	<g>
		<path class="st0" d="M16,73c-0.3,0-0.5-0.1-0.7-0.3l-4-4c-0.4-0.4-0.4-1,0-1.4s1-0.4,1.4,0l4,4c0.4,0.4,0.4,1,0,1.4
			C16.5,72.9,16.3,73,16,73z"/>
	</g>
</g>
<g id="robux-on_1_">
	<path class="st0" d="M37,39v2h2.6c0.1-0.5,0.1-1.5,0-2H37z"/>
	<path class="st0" d="M42,30c-6.6,0-12,5.4-12,12s5.4,12,12,12s12-5.4,12-12S48.6,30,42,30z M47,47v1c0,0.6-0.4,1-1,1s-1-0.4-1-1v-1
		h-3c-0.2,0-0.4-0.1-0.6-0.2L37,43.3V46c0,0.6-0.4,1-1,1s-1-0.4-1-1v-8c0-0.6,0.4-1,1-1h4c1.1,0,1.7,1.1,1.7,3
		c0,0.6-0.1,1.2-0.2,1.7C41.1,42.9,40.3,43,40,43h-0.1l2.5,2H47c0.3,0,0.5-0.5,0.5-1c0-0.4-0.1-1-0.5-1h-2c-1.4,0-2.5-1.3-2.5-3
		c0-0.7,0.2-1.4,0.5-1.9c0.5-0.7,1.2-1.1,2-1.1v-1c0-0.6,0.4-1,1-1s1,0.4,1,1v1h1c0.6,0,1,0.4,1,1s-0.4,1-1,1h-3
		c-0.1,0-0.2,0-0.3,0.2s-0.2,0.5-0.2,0.8c0,0.4,0.2,1,0.5,1h2c1.4,0,2.5,1.3,2.5,3S48.4,47,47,47z"/>
</g>
<g id="robux_2_">
	<g>
		<path class="st0" d="M14,54C7.4,54,2,48.6,2,42s5.4-12,12-12s12,5.4,12,12S20.6,54,14,54z M14,32C8.5,32,4,36.5,4,42s4.5,10,10,10
			s10-4.5,10-10S19.5,32,14,32z"/>
	</g>
	<g>
		<g>
			<path class="st0" d="M19,47h-5c-0.2,0-0.4-0.1-0.6-0.2L9,43.3V46c0,0.6-0.4,1-1,1s-1-0.4-1-1v-8c0-0.6,0.4-1,1-1h4
				c1.1,0,1.7,1.1,1.7,3c0,0.6-0.1,1.2-0.2,1.7C13.1,42.9,12.3,43,12,43h-0.1l2.5,2H19c0.3,0,0.5-0.5,0.5-1c0-0.4-0.1-1-0.5-1h-2
				c-1.4,0-2.5-1.3-2.5-3c0-0.7,0.2-1.4,0.5-1.9c0.5-0.7,1.2-1.1,2-1.1h3c0.6,0,1,0.4,1,1s-0.4,1-1,1h-3c-0.1,0-0.2,0-0.3,0.2
				c-0.1,0.2-0.2,0.5-0.2,0.8c0,0.4,0.2,1,0.5,1h2c1.4,0,2.5,1.3,2.5,3S20.4,47,19,47z M9,41h2.6c0.1-0.5,0.1-1.5,0-2H9V41z"/>
		</g>
		<g>
			<path class="st0" d="M18,38c-0.6,0-1-0.4-1-1v-1c0-0.6,0.4-1,1-1s1,0.4,1,1v1C19,37.6,18.6,38,18,38z"/>
		</g>
		<g>
			<path class="st0" d="M18,49c-0.6,0-1-0.4-1-1v-1c0-0.6,0.4-1,1-1s1,0.4,1,1v1C19,48.6,18.6,49,18,49z"/>
		</g>
	</g>
</g>
<g id="menu-on_1_">
	<g>
		<path class="st0" d="M50,10H34c-0.6,0-1-0.4-1-1s0.4-1,1-1h16c0.6,0,1,0.4,1,1S50.6,10,50,10z"/>
	</g>
	<g>
		<path class="st0" d="M50,15H34c-0.6,0-1-0.4-1-1s0.4-1,1-1h16c0.6,0,1,0.4,1,1S50.6,15,50,15z"/>
	</g>
	<g>
		<path class="st0" d="M50,20H34c-0.6,0-1-0.4-1-1s0.4-1,1-1h16c0.6,0,1,0.4,1,1S50.6,20,50,20z"/>
	</g>
</g>
<g id="menu_2_">
	<g>
		<path class="st0" d="M22,10H6c-0.6,0-1-0.4-1-1s0.4-1,1-1h16c0.6,0,1,0.4,1,1S22.6,10,22,10z"/>
	</g>
	<g>
		<path class="st0" d="M22,15H6c-0.6,0-1-0.4-1-1s0.4-1,1-1h16c0.6,0,1,0.4,1,1S22.6,15,22,15z"/>
	</g>
	<g>
		<path class="st0" d="M22,20H6c-0.6,0-1-0.4-1-1s0.4-1,1-1h16c0.6,0,1,0.4,1,1S22.6,20,22,20z"/>
	</g>
</g>
<g id="gift_card-hover">
	<path class="st0" d="M43.5,511c0-0.8-0.7-1.5-1.5-1.5s-1.5,0.7-1.5,1.5H39c-0.8,0-1.5,0.7-1.5,1.5s0.7,1.5,1.5,1.5h6
		c0.8,0,1.5-0.7,1.5-1.5S45.8,511,45,511H43.5z"/>
	<path class="st0" d="M47,522c-0.6,0-1,0.4-1,1s0.4,1,1,1h3.6l-4.3,4.3c-0.4,0.4-0.4,1,0,1.4c0.2,0.2,0.5,0.3,0.7,0.3
		s0.5-0.1,0.7-0.3l4.3-4.3v3.5c0,0.6,0.4,1,1,1s1-0.4,1-1V522H47z"/>
	<path class="st0" d="M44.2,524H38v-2h6.2c0.4-1,1.2-1.7,2.3-1.9c-0.1,0-0.3-0.1-0.5-0.1h-8c-1.1,0-2,0.9-2,2v2c0,1.1,0.9,2,2,2h7.8
		l0.2-0.2C45.1,525.5,44.5,524.8,44.2,524z"/>
	<path class="st0" d="M34,528v-20h16v12h2v-12.1c0-1.1-0.9-1.9-1.9-1.9H33.9c-1.1,0-1.9,0.9-1.9,1.9v20.2c0,1.1,0.9,1.9,1.9,1.9
		h10.3c-0.1-0.3-0.2-0.7-0.2-1s0.1-0.7,0.2-1H34z"/>
</g>
<g id="gift_card">
	<path class="st2" d="M15.5,511c0-0.8-0.7-1.5-1.5-1.5s-1.5,0.7-1.5,1.5H11c-0.8,0-1.5,0.7-1.5,1.5s0.7,1.5,1.5,1.5h6
		c0.8,0,1.5-0.7,1.5-1.5S17.8,511,17,511H15.5z"/>
	<path class="st2" d="M19,522c-0.6,0-1,0.4-1,1s0.4,1,1,1h3.6l-4.3,4.3c-0.4,0.4-0.4,1,0,1.4c0.2,0.2,0.5,0.3,0.7,0.3
		s0.5-0.1,0.7-0.3l4.3-4.3v3.5c0,0.6,0.4,1,1,1s1-0.4,1-1V522H19z"/>
	<path class="st2" d="M16.2,524H10v-2h6.2c0.4-1,1.2-1.7,2.3-1.9c-0.1,0-0.3-0.1-0.5-0.1h-8c-1.1,0-2,0.9-2,2v2c0,1.1,0.9,2,2,2h7.8
		l0.2-0.2C17.1,525.5,16.5,524.8,16.2,524z"/>
	<path class="st2" d="M6,528v-20h16v12h2v-12.1c0-1.1-0.9-1.9-1.9-1.9H5.9c-1.1,0-1.9,0.9-1.9,1.9v20.2c0,1.1,0.9,1.9,1.9,1.9h10.3
		c-0.1-0.3-0.2-0.7-0.2-1s0.1-0.7,0.2-1H6z"/>
</g>
<g id="my_feed-hover">
	<path class="st0" d="M42,502c-0.6,0-1.1-0.3-1.5-0.7c-0.3-0.4-0.4-0.9-0.3-1.3l0,0l1.4-6.9l-10.2,1.3l9-15.5
		c0.2-0.5,0.9-0.9,1.5-0.9s1.1,0.3,1.5,0.7c0.3,0.4,0.4,0.9,0.3,1.3l-1.4,6.8l10.2-1.3L43.6,501C43.5,501.3,43,502,42,502z
		 M44.2,490.7l-1.7,8.2l6.2-10.8l-9,1.1l1.7-8.2l-6.2,10.8L44.2,490.7z M42.2,479.7L42.2,479.7C42.2,479.8,42.2,479.7,42.2,479.7z
		 M41.8,479.5L41.8,479.5L41.8,479.5z"/>
</g>
<g id="my_feed_2_">
	<path class="st2" d="M14.1,502c-0.6,0-1.1-0.3-1.5-0.7c-0.3-0.4-0.4-0.9-0.3-1.3l0,0l1.4-6.9l-10.2,1.3l9-15.5
		c0.2-0.5,0.9-0.9,1.5-0.9s1.1,0.3,1.5,0.7c0.3,0.4,0.4,0.9,0.3,1.3l-1.4,6.8l10.2-1.3L15.7,501C15.4,501.3,14.9,502,14.1,502z
		 M16.2,490.7l-1.7,8.2l6.2-10.8l-9,1.1l1.7-8.2l-6.2,10.8L16.2,490.7z M14.2,479.7L14.2,479.7C14.2,479.8,14.2,479.7,14.2,479.7z
		 M13.9,479.5L13.9,479.5L13.9,479.5z"/>
</g>
<g id="store-hover">
	<circle class="st0" cx="36.5" cy="444.5" r="1.5"/>
	<path class="st0" d="M46,439c0,0.6,0.4,1,1,1h3.6l-4.3,4.3c-0.4,0.4-0.4,1,0,1.4c0.2,0.2,0.5,0.3,0.7,0.3s0.5-0.1,0.7-0.3l4.3-4.3
		v3.5c0,0.6,0.4,1,1,1s1-0.4,1-1V438h-7C46.4,438,46,438.4,46,439z"/>
	<path class="st0" d="M37.1,425.8l-0.8-2.5l-4.5-0.8c-0.5-0.1-1.1,0.3-1.2,0.8s0.3,1.1,0.8,1.2l3.3,0.6l3.2,10.5l-1.4,3.6
		c-0.2,0.6-0.2,1.3,0.2,1.9c0.4,0.5,1,0.9,1.7,0.9h7.3l0.2-0.2c-0.8-0.3-1.5-1-1.8-1.8h-5.7l1.4-3.5l13.1-2.2
		c0.6-0.1,1.1-0.7,1.1-1.3v-4.8L37.1,425.8z M52,432.3l-12.3,2l-1.9-6.5l14.2,2V432.3z"/>
</g>
<g id="store_1_">
	<circle class="st2" cx="8.5" cy="444.5" r="1.5"/>
	<path class="st2" d="M18,439c0,0.6,0.4,1,1,1h3.6l-4.3,4.3c-0.4,0.4-0.4,1,0,1.4c0.2,0.2,0.5,0.3,0.7,0.3s0.5-0.1,0.7-0.3l4.3-4.3
		v3.5c0,0.6,0.4,1,1,1s1-0.4,1-1V438h-7C18.4,438,18,438.4,18,439z"/>
	<path class="st2" d="M9.1,425.8l-0.8-2.5l-4.5-0.8c-0.5-0.1-1.1,0.3-1.2,0.8c-0.1,0.5,0.3,1.1,0.8,1.2l3.3,0.6l3.2,10.5l-1.4,3.6
		c-0.2,0.6-0.2,1.3,0.2,1.9c0.4,0.5,1,0.9,1.7,0.9h7.3l0.2-0.2c-0.8-0.3-1.5-1-1.8-1.8h-5.7l1.4-3.5l13.1-2.2
		c0.6-0.1,1.1-0.7,1.1-1.3v-4.8L9.1,425.8z M24,432.3l-12.3,2l-1.9-6.4l14.2,2V432.3z"/>
</g>
<g id="blog-hover">
	<path class="st0" d="M47,382c-0.6,0-1,0.4-1,1s0.4,1,1,1h3.6l-4.3,4.3c-0.4,0.4-0.4,1,0,1.4c0.2,0.2,0.5,0.3,0.7,0.3
		s0.5-0.1,0.7-0.3l4.3-4.3v3.5c0,0.6,0.4,1,1,1s1-0.4,1-1V382H47z"/>
	<path class="st0" d="M33,385.8v-16.6c0-0.1,0.1-0.2,0.2-0.2h17.6c0.1,0,0.2,0.1,0.2,0.2V380h2v-10.8c0-1.2-1-2.2-2.2-2.2H33.2
		c-1.2,0-2.2,1-2.2,2.2v16.6c0,1.2,1,2.2,2.2,2.2h11c0.1-0.4,0.4-0.8,0.7-1.1l0.9-0.9H33.2C33.1,386,33,385.9,33,385.8z"/>
	<path class="st0" d="M42,378h-6c-0.6,0-1,0.4-1,1s0.4,1,1,1h6c0.6,0,1-0.4,1-1S42.6,378,42,378z"/>
	<path class="st0" d="M42,382h-6c-0.6,0-1,0.4-1,1s0.4,1,1,1h6c0.6,0,1-0.4,1-1S42.6,382,42,382z"/>
	<path class="st0" d="M49,373.9v-0.8c0-1.2-0.9-2.1-2.1-2.1h-9.8c-1.2,0-2.1,0.9-2.1,2.1v0.8c0,1.2,0.9,2.1,2.1,2.1h9.8
		C48.1,376,49,375.1,49,373.9z M37,373.9v-0.8c0-0.1,0-0.1,0.1-0.1h9.8c0.1,0,0.1,0,0.1,0.1v0.8c0,0.1,0,0.1-0.1,0.1L37,373.9
		C37,374,37,374,37,373.9z"/>
</g>
<g id="blog_1_">
	<path class="st2" d="M19,382c-0.6,0-1,0.4-1,1s0.4,1,1,1h3.6l-4.3,4.3c-0.4,0.4-0.4,1,0,1.4c0.2,0.2,0.5,0.3,0.7,0.3
		s0.5-0.1,0.7-0.3l4.3-4.3v3.5c0,0.6,0.4,1,1,1s1-0.4,1-1V382H19z"/>
	<path class="st2" d="M5,385.8v-16.6c0-0.1,0.1-0.2,0.2-0.2h17.6c0.1,0,0.2,0.1,0.2,0.2V380h2v-10.8c0-1.2-1-2.2-2.2-2.2H5.2
		C4,367,3,368,3,369.2v16.6c0,1.2,1,2.2,2.2,2.2h11c0.1-0.4,0.4-0.8,0.7-1.1l0.9-0.9H5.2C5.1,386,5,385.9,5,385.8z"/>
	<path class="st2" d="M14,378H8c-0.6,0-1,0.4-1,1s0.4,1,1,1h6c0.6,0,1-0.4,1-1S14.6,378,14,378z"/>
	<path class="st2" d="M14,382H8c-0.6,0-1,0.4-1,1s0.4,1,1,1h6c0.6,0,1-0.4,1-1S14.6,382,14,382z"/>
	<path class="st2" d="M21,373.9v-0.8c0-1.2-0.9-2.1-2.1-2.1H9.1c-1.2,0-2.1,0.9-2.1,2.1v0.8c0,1.2,0.9,2.1,2.1,2.1h9.8
		C20.1,376,21,375.1,21,373.9z M9,373.9v-0.8c0-0.1,0-0.1,0.1-0.1h9.8c0.1,0,0.1,0,0.1,0.1v0.8c0,0.1,0,0.1-0.1,0.1L9,373.9
		C9,374,9,374,9,373.9z"/>
</g>
<path id="groups-hover" class="st0" d="M54,354.9v-0.5c0-0.3,0-1.1-0.1-2c0-2-0.1-3.4-0.2-3.8c-0.1-1.3-1.1-2.6-2.3-3
	c0.2-0.3,0.4-0.7,0.4-1.1c0.1-1,0.1-1.9,0-3c-0.2-1.2-1.3-2.2-2.4-2.4l0,0c-1-0.1-2-0.1-2.9,0c-1.2,0.2-2.3,1.3-2.5,2.5
	c0,0.2,0,0.5,0,0.7c-0.2-0.1-0.4-0.1-0.6-0.2l0,0c-1-0.1-2-0.1-2.9,0c-0.2,0-0.4,0.1-0.6,0.2c0-0.3,0-0.5,0-0.8
	c-0.2-1.2-1.3-2.2-2.4-2.4l0,0c-1-0.1-2-0.1-2.9,0c-1.2,0.2-2.3,1.3-2.5,2.5c-0.1,1-0.1,1.9,0,2.9c0.1,0.4,0.2,0.7,0.4,1
	c-1.1,0.3-2.1,1.7-2.3,3c-0.1,0.5-0.1,1.9-0.2,3.8c0,0.9,0,1.7-0.1,2v0.5l0.4,0.3c1.3,1.1,2.9,1.7,4.7,1.8c0,0.9,0,1.7-0.1,2v0.5
	l0.4,0.3c1.7,1.5,4,2.2,6.7,2.2s4.9-0.7,6.6-2.2l0.4-0.3v-0.5c0-0.3,0-1-0.1-2c1.9-0.1,3.4-0.8,4.7-1.9L54,354.9z M46.1,341.9
	c0-0.3,0.5-0.7,0.7-0.7c0.4,0,0.8-0.1,1.2-0.1s0.8,0,1.2,0.1c0.3,0,0.7,0.5,0.7,0.7c0.1,0.8,0.1,1.6,0,2.4c0,0.3-0.5,0.7-0.7,0.7
	c-0.8,0.1-1.6,0.1-2.4,0c-0.3,0-0.7-0.5-0.7-0.7C46,343.5,46,342.7,46.1,341.9z M40.1,344.9c0-0.3,0.5-0.7,0.7-0.7
	c0.4,0,0.8-0.1,1.2-0.1s0.8,0,1.2,0.1c0.3,0,0.7,0.5,0.7,0.7c0.1,0.8,0.1,1.6,0,2.4c0,0.3-0.5,0.7-0.7,0.7c-0.8,0.1-1.6,0.1-2.4,0
	c-0.3,0-0.7-0.5-0.7-0.7C40,346.5,40,345.7,40.1,344.9z M34.1,341.9c0-0.3,0.5-0.7,0.7-0.7c0.4,0,0.8-0.1,1.2-0.1s0.8,0,1.2,0.1
	c0.3,0,0.7,0.5,0.7,0.7c0.1,0.8,0.1,1.6,0,2.4c0,0.3-0.5,0.7-0.7,0.7c-0.8,0.1-1.6,0.1-2.4,0c-0.3,0-0.7-0.5-0.7-0.7
	C34,343.5,34,342.7,34.1,341.9z M35.3,352.1c-0.1,0.4-0.1,1.5-0.1,2.9c-1.2-0.1-2.2-0.5-3.1-1.1c0-0.4,0-0.9,0-1.5
	c0-1.3,0.1-3.2,0.1-3.6c0.1-0.7,0.6-1.3,0.9-1.3c1.7-0.5,3.4-0.5,5-0.2c0,0.1,0,0.2,0,0.2c0,0.3,0.2,0.7,0.4,1
	c-0.2,0-0.4,0.1-0.5,0.1C36.6,349,35.5,350.5,35.3,352.1z M42,360.1c-2,0-3.7-0.5-5-1.5c0-0.5,0-1.2,0.1-1.9c0-1.5,0.1-3.9,0.2-4.4
	c0.1-0.9,0.8-1.7,1.2-1.8c2.4-0.6,4.8-0.6,7.1,0c0.5,0.2,1.2,1,1.3,1.8c0.1,0.5,0.1,2.8,0.2,4.3c0,0.8,0,1.5,0.1,1.9
	C45.6,359.6,44,360.1,42,360.1z M49,355c0-1.5-0.1-2.5-0.1-2.9c-0.2-1.5-1.3-3-2.6-3.5c-0.2,0-0.4-0.1-0.5-0.1
	c0.2-0.3,0.3-0.6,0.4-1c0-0.1,0-0.1,0-0.2c1.7-0.3,3.3-0.3,4.9,0.2c0.4,0.1,0.9,0.8,0.9,1.4c0.1,0.4,0.1,2.3,0.1,3.6
	c0,0.6,0,1.1,0,1.5C51.1,354.6,50.1,354.9,49,355z"/>
<path id="groups_1_" class="st2" d="M26,354.9v-0.5c0-0.3,0-1.1-0.1-2c0-2-0.1-3.4-0.2-3.8c-0.1-1.3-1.1-2.6-2.3-3
	c0.2-0.3,0.4-0.7,0.4-1.1c0.1-1,0.1-1.9,0-3c-0.2-1.2-1.3-2.2-2.4-2.4l0,0c-1-0.1-2-0.1-2.9,0c-1.2,0.2-2.3,1.3-2.5,2.5
	c0,0.2,0,0.5,0,0.7c-0.2-0.1-0.4-0.1-0.6-0.2l0,0c-1-0.1-2-0.1-2.9,0c-0.2,0-0.4,0.1-0.6,0.2c0-0.3,0-0.5,0-0.8
	c-0.2-1.2-1.3-2.2-2.4-2.4l0,0c-1-0.1-2-0.1-2.9,0c-1.2,0.2-2.3,1.3-2.5,2.5c-0.1,1-0.1,1.9,0,2.9c0.1,0.4,0.2,0.7,0.4,1
	c-1.1,0.3-2.1,1.7-2.3,3c-0.1,0.5-0.1,1.9-0.2,3.8c0,0.9,0,1.7-0.1,2v0.5l0.4,0.3c1.3,1.1,2.9,1.7,4.7,1.8c0,0.9,0,1.7-0.1,2v0.5
	l0.4,0.3c1.7,1.5,4,2.2,6.7,2.2s4.9-0.7,6.6-2.2l0.4-0.3v-0.5c0-0.3,0-1-0.1-2c1.9-0.1,3.4-0.8,4.7-1.9L26,354.9z M18.1,341.9
	c0-0.3,0.5-0.7,0.7-0.7c0.4,0,0.8-0.1,1.2-0.1c0.4,0,0.8,0,1.2,0.1c0.3,0,0.7,0.5,0.7,0.7c0.1,0.8,0.1,1.6,0,2.4
	c0,0.3-0.5,0.7-0.7,0.7c-0.8,0.1-1.6,0.1-2.4,0c-0.3,0-0.7-0.5-0.7-0.7C18,343.5,18,342.7,18.1,341.9z M12.2,344.9
	c0-0.3,0.5-0.7,0.7-0.7c0.4,0,0.8-0.1,1.2-0.1s0.8,0,1.2,0.1c0.3,0,0.7,0.5,0.7,0.7c0.1,0.8,0.1,1.6,0,2.4c0,0.3-0.5,0.7-0.7,0.7
	c-0.8,0.1-1.6,0.1-2.4,0c-0.3,0-0.7-0.5-0.7-0.7C12.1,346.5,12.1,345.7,12.2,344.9z M6.2,341.9c0-0.3,0.5-0.7,0.7-0.7
	c0.4,0,0.8-0.1,1.2-0.1s0.8,0,1.2,0.1c0.3,0,0.7,0.5,0.7,0.7c0.1,0.8,0.1,1.6,0,2.4c0,0.3-0.5,0.7-0.7,0.7c-0.8,0.1-1.6,0.1-2.4,0
	c-0.3,0-0.7-0.5-0.7-0.7C6.1,343.5,6.1,342.7,6.2,341.9z M7.4,352.1c-0.1,0.4-0.1,1.5-0.1,2.9c-1.2-0.1-2.2-0.5-3.1-1.1
	c0-0.4,0-0.9,0-1.5c0-1.3,0.1-3.2,0.1-3.6c0.1-0.7,0.6-1.3,0.9-1.3c1.7-0.5,3.4-0.5,5-0.2c0,0.1,0,0.2,0,0.2c0,0.3,0.2,0.7,0.4,1
	c-0.2,0-0.4,0.1-0.5,0.1C8.7,349,7.5,350.5,7.4,352.1z M14.1,360.1c-2,0-3.7-0.5-5-1.5c0-0.5,0-1.2,0.1-1.9c0-1.5,0.1-3.9,0.2-4.4
	c0.1-0.9,0.8-1.7,1.2-1.8c2.4-0.6,4.8-0.6,7.1,0c0.5,0.2,1.2,1,1.3,1.8c0.1,0.5,0.1,2.8,0.2,4.3c0,0.8,0,1.5,0.1,1.9
	C17.6,359.6,16,360.1,14.1,360.1z M20.9,355c0-1.5-0.1-2.5-0.1-2.9c-0.2-1.5-1.3-3-2.6-3.5c-0.2,0-0.4-0.1-0.5-0.1
	c0.2-0.3,0.3-0.6,0.4-1c0-0.1,0-0.1,0-0.2c1.7-0.3,3.3-0.3,4.9,0.2c0.4,0.1,0.9,0.8,0.9,1.4c0.1,0.4,0.1,2.3,0.1,3.6
	c0,0.6,0,1.1,0,1.5C23.1,354.6,22.1,354.9,20.9,355z"/>
<g id="trade-hover">
	<path class="st0" d="M34.7,315.2l4.8,3.3l-4.8,3.3l1.1-2.5l0.4-0.8l-0.4-0.8L34.7,315.2 M31.9,311c-0.6,0-0.9,0.4-0.9,0.9
		c0,0.3,0.1,0.5,0.3,0.7l2.7,5.9l-2.7,6c-0.2,0.1-0.3,0.4-0.3,0.6c0,0.6,0.4,0.9,0.9,0.9c0.2,0,0.3,0,0.4-0.1l10.7-7.4l-10.6-7.3
		C32.3,311.1,32.1,311,31.9,311L31.9,311z"/>
	<path class="st0" d="M49.3,322.1l-1.2,2.6l-0.4,0.8l0.4,0.8l1.1,2.5l-4.8-3.3L49.3,322.1 M52,318c-0.2,0-0.3,0-0.4,0.1L41,325.5
		l10.6,7.3c0.2,0.1,0.3,0.2,0.5,0.2c0.6,0,0.9-0.4,0.9-0.9c0-0.3-0.1-0.5-0.3-0.7l-2.7-5.9l2.7-6c0.1-0.2,0.2-0.4,0.2-0.6
		C52.9,318.4,52.5,318,52,318L52,318z"/>
</g>
<g id="trade_2_">
	<path class="st2" d="M6.7,315.2l4.8,3.3l-4.8,3.3l1.1-2.5l0.4-0.8l-0.4-0.8L6.7,315.2 M3.9,311c-0.6,0-0.9,0.4-0.9,0.9
		c0,0.3,0.1,0.5,0.3,0.7l2.7,5.9l-2.7,6c-0.2,0.1-0.3,0.4-0.3,0.6c0,0.6,0.4,0.9,0.9,0.9c0.2,0,0.3,0,0.4-0.1l10.7-7.4l-10.6-7.3
		C4.3,311.1,4.1,311,3.9,311L3.9,311z"/>
	<path class="st2" d="M21.3,322.1l-1.2,2.6l-0.4,0.8l0.4,0.8l1.1,2.5l-4.8-3.3L21.3,322.1 M24,318c-0.2,0-0.3,0-0.4,0.1L13,325.5
		l10.6,7.3c0.2,0.1,0.3,0.2,0.5,0.2c0.6,0,0.9-0.4,0.9-0.9c0-0.3-0.1-0.5-0.3-0.7l-2.7-5.9l2.7-6c0.1-0.2,0.2-0.4,0.2-0.6
		C24.9,318.4,24.5,318,24,318L24,318z"/>
</g>
<g id="inventory-hover">
	<path class="st0" d="M51.9,296.3L51.9,296.3c-0.1-0.6-0.6-1.2-1.1-1.4c0-2.1-0.2-4.3-0.6-6.4c-0.2-1.2-1.3-2.4-2.6-2.8
		c-0.5-0.1-1.1-0.2-1.6-0.3v-1.6c0-1-0.8-1.8-1.8-1.8h-4.4c-1,0-1.8,0.8-1.8,1.8v1.6c-0.5,0.1-1.1,0.2-1.6,0.3
		c-1.2,0.3-2.3,1.5-2.6,2.8c-0.4,2.1-0.5,4.3-0.6,6.4c-0.6,0.2-1,0.8-1.1,1.4c-0.2,1.6-0.2,3.1,0,4.7c0.1,0.7,0.6,1.3,1.3,1.4
		c0.1,0,0.3,0.1,0.4,0.1v0.1c0.2,1.2,1.3,2.4,2.6,2.8c1.9,0.4,3.7,0.7,5.6,0.7c1.9,0,3.8-0.2,5.6-0.7c1.2-0.3,2.3-1.5,2.6-2.8v-0.1
		c0.1,0,0.3-0.1,0.4-0.1c0.6-0.2,1.2-0.8,1.3-1.4C52.2,299.4,52.2,297.8,51.9,296.3z M40,284.5c0-0.3,0.2-0.5,0.5-0.5h3
		c0.3,0,0.5,0.2,0.5,0.5v0.6c-1.3-0.1-2.7-0.1-4,0V284.5z M50,300.5c-0.2,0-0.4,0.1-0.7,0.1l-0.8,0.1l-0.2,1.1
		c0,0.2-0.1,0.4-0.1,0.5c-0.1,0.5-0.6,1-1.1,1.2c-3.4,0.8-6.9,0.8-10.3,0c-0.5-0.1-1-0.7-1.1-1.1c0-0.2-0.1-0.4-0.1-0.5l-0.2-1.1
		l-0.8-0.1c-0.3,0-0.5-0.1-0.7-0.1c-0.2-1.3-0.2-2.5,0-3.8c0.1,0,0.2,0,0.3-0.1l0.8-0.1v-0.9c0-2.3,0.2-4.6,0.6-6.9
		c0.1-0.5,0.6-1,1.1-1.2c3.4-0.8,6.9-0.8,10.3,0c0.5,0.1,1,0.7,1.1,1.1c0.4,2.3,0.6,4.6,0.6,6.9v0.9l0.8,0.1c0.1,0,0.2,0,0.3,0.1
		C50.1,298,50.1,299.2,50,300.5z"/>
	<path class="st0" d="M44.1,295.2L44.1,295.2c-1.4-0.2-2.7-0.2-4.1,0c-0.8,0.1-1.6,0.9-1.8,1.7c-0.2,1.4-0.2,2.9,0,4.3
		c0.1,0.8,1,1.5,1.8,1.7c0.7,0.1,1.4,0.2,2,0.2c0.7,0,1.4-0.1,2.1-0.2c0.8-0.1,1.6-0.9,1.8-1.7c0.2-1.4,0.2-2.9,0-4.3
		C45.7,296.1,44.9,295.3,44.1,295.2z M43.9,300.7c0,0.1-0.1,0.1-0.1,0.1c-1.2,0.2-2.4,0.2-3.4,0c0,0-0.1-0.1-0.2-0.1
		c-0.2-1.2-0.2-2.3,0-3.5c0-0.1,0.1-0.1,0.1-0.1c1.1-0.2,2.3-0.2,3.4,0c0,0,0.1,0.1,0.2,0.1C44.1,298.4,44.1,299.6,43.9,300.7z"/>
	<path class="st0" d="M45,290h-6c-0.6,0-1,0.4-1,1s0.4,1,1,1h6c0.6,0,1-0.4,1-1S45.6,290,45,290z"/>
</g>
<g id="inventory">
	<path class="st2" d="M23.9,296.3L23.9,296.3c-0.1-0.6-0.6-1.2-1.1-1.4c0-2.1-0.2-4.3-0.6-6.4c-0.2-1.2-1.3-2.4-2.6-2.8
		c-0.5-0.1-1.1-0.2-1.6-0.3v-1.6c0-1-0.8-1.8-1.8-1.8h-4.4c-1,0-1.8,0.8-1.8,1.8v1.6c-0.5,0.1-1.1,0.2-1.6,0.3
		c-1.2,0.3-2.3,1.5-2.6,2.8c-0.4,2.1-0.5,4.3-0.6,6.4c-0.6,0.2-1,0.8-1.1,1.4c-0.2,1.6-0.2,3.1,0,4.7c0.1,0.7,0.6,1.3,1.3,1.4
		c0.1,0,0.3,0.1,0.4,0.1v0.1c0.2,1.2,1.3,2.4,2.6,2.8c1.9,0.4,3.7,0.7,5.6,0.7s3.8-0.2,5.6-0.7c1.2-0.3,2.3-1.5,2.6-2.8v-0.1
		c0.1,0,0.3-0.1,0.4-0.1c0.6-0.2,1.2-0.8,1.3-1.4C24.1,299.4,24.1,297.8,23.9,296.3z M12,284.5c0-0.3,0.2-0.5,0.5-0.5h3
		c0.3,0,0.5,0.2,0.5,0.5v0.6c-1.3-0.1-2.7-0.1-4,0V284.5z M21.9,300.5c-0.2,0-0.4,0.1-0.7,0.1l-0.8,0.1l-0.2,1.1
		c0,0.2-0.1,0.4-0.1,0.5c-0.1,0.5-0.6,1-1.1,1.2c-3.4,0.8-6.9,0.8-10.3,0c-0.5-0.1-1-0.7-1.1-1.1c0-0.2-0.1-0.4-0.1-0.5l-0.2-1.1
		l-0.8-0.1c-0.3,0-0.5-0.1-0.7-0.1c-0.2-1.3-0.2-2.5,0-3.8c0.1,0,0.2,0,0.3-0.1l0.8-0.1v-0.9c0-2.3,0.2-4.6,0.6-6.9
		c0.1-0.5,0.6-1,1.1-1.2c3.4-0.8,6.9-0.8,10.3,0c0.5,0.1,1,0.7,1.1,1.1c0.4,2.3,0.6,4.6,0.6,6.9v0.9l0.8,0.1c0.1,0,0.2,0,0.3,0.1
		C22.1,298,22.1,299.2,21.9,300.5z"/>
	<path class="st2" d="M16,295.2L16,295.2c-1.4-0.2-2.7-0.2-4.1,0c-0.8,0.1-1.6,0.9-1.8,1.7c-0.2,1.4-0.2,2.9,0,4.3
		c0.1,0.8,1,1.5,1.8,1.7c0.7,0.1,1.4,0.2,2,0.2c0.7,0,1.4-0.1,2.1-0.2c0.8-0.1,1.6-0.9,1.8-1.7c0.2-1.4,0.2-2.9,0-4.3
		C17.7,296.1,16.9,295.3,16,295.2z M15.9,300.7c0,0.1-0.1,0.1-0.1,0.1c-1.2,0.2-2.4,0.2-3.4,0c0,0-0.1-0.1-0.2-0.1
		c-0.2-1.2-0.2-2.3,0-3.5c0-0.1,0.1-0.1,0.1-0.1c1.1-0.2,2.3-0.2,3.4,0c0,0,0.1,0.1,0.2,0.1C16,298.4,16,299.6,15.9,300.7z"/>
	<path class="st2" d="M17,290h-6c-0.6,0-1,0.4-1,1s0.4,1,1,1h6c0.6,0,1-0.4,1-1S17.6,290,17,290z"/>
</g>
<g id="avatar-hover">
	<path class="st0" d="M51.9,272.9c-0.7-0.4-1.8-0.7-2.9-0.9v0.8c0.6,0.2,1.2,0.3,1.7,0.6c2.8,1.4-0.2,3.5-8.7,3.5s-11.4-2-8.7-3.5
		c0.4-0.2,1-0.4,1.7-0.6V272c-1.1,0.3-2.2,0.6-2.9,0.9c-3.8,1.9-1,5.1,9.9,5.1S55.7,274.8,51.9,272.9z"/>
	<path class="st0" d="M36.5,271v1.7c0,1.5,1.2,2.8,2.8,2.8h1.9c0.5,0,0.9-0.4,0.9-0.9c0,0.5,0.4,0.9,0.9,0.9h1.9
		c1.5,0,2.8-1.2,2.8-2.8V271c1.4-0.1,2.5-1.3,2.5-2.7v-1.8c0-0.7-0.1-1.4-0.2-2.1c-0.2-1.5-1.8-2.9-3.4-3.2c0.1-1.1,0.1-2.2,0-3.4
		c-0.2-1.3-1.4-2.5-2.7-2.7c-1.1-0.1-2.2-0.1-3.4,0c-1.3,0.2-2.5,1.4-2.7,2.7c-0.1,1.1-0.1,2.2,0,3.4c-1.6,0.3-3.2,1.7-3.4,3.2
		c-0.1,0.7-0.2,1.4-0.2,2.1v1.8C34,269.7,35.1,270.9,36.5,271z M39.5,258.1c0.1-0.4,0.6-1,1-1c1-0.1,2-0.1,2.9,0c0.4,0.1,1,0.6,1,1
		c0.1,1,0.1,1.9,0,2.9c-0.1,0.4-0.5,0.9-1,1c-1,0.1-1.9,0.1-2.9,0c-0.5-0.1-0.9-0.6-1-1C39.4,260,39.4,259.1,39.5,258.1z M36,266.5
		c0-0.6,0-1.2,0.1-1.8c0.1-0.6,1-1.4,1.8-1.5c2.6-0.2,5.5-0.2,8.1,0c0.8,0.1,1.7,1,1.8,1.5c0.2,1.1,0.1,2.6,0.1,3.6
		c0,0.9-0.9,0.8-1.5,0.8v-3c0-0.3-0.2-0.5-0.5-0.5s-0.5,0.2-0.5,0.5v3c0,0.7,0,3,0,3.7c0,0.4-0.3,0.8-0.8,0.8H44c-0.6,0-1-0.4-1-1
		v-2c0-0.6-0.4-1-1-1c-0.6,0-1,0.4-1,1v2c0,0.6-0.4,1-1,1h-0.8c-0.4,0-0.8-0.4-0.8-0.8c0-0.7,0-3,0-3.7v-3c0-0.3-0.2-0.5-0.5-0.5
		c-0.3,0-0.5,0.2-0.5,0.5v3h-0.6c-0.4,0-0.8-0.3-0.8-0.8V266.5z"/>
</g>
<g id="avatar_1_">
	<path class="st2" d="M23.9,272.9c-0.7-0.4-1.8-0.7-2.9-0.9v0.8c0.6,0.2,1.2,0.3,1.7,0.6c2.8,1.4-0.2,3.5-8.7,3.5s-11.4-2-8.7-3.5
		c0.4-0.2,1-0.4,1.7-0.6V272c-1.1,0.3-2.2,0.6-2.9,0.9c-3.8,1.9-1,5.1,9.9,5.1S27.7,274.8,23.9,272.9z"/>
	<path class="st2" d="M8.5,271v1.7c0,1.5,1.2,2.8,2.8,2.8h1.9c0.5,0,0.9-0.4,0.9-0.9c0,0.5,0.4,0.9,0.9,0.9h1.9
		c1.5,0,2.8-1.2,2.8-2.8V271c1.4-0.1,2.5-1.3,2.5-2.7v-1.8c0-0.7-0.1-1.4-0.2-2.1c-0.2-1.5-1.8-2.9-3.4-3.2c0.1-1.1,0.1-2.2,0-3.4
		c-0.2-1.3-1.4-2.5-2.7-2.7c-1.1-0.1-2.2-0.1-3.4,0c-1.3,0.2-2.5,1.4-2.7,2.7c-0.1,1.1-0.1,2.2,0,3.4c-1.6,0.3-3.2,1.7-3.4,3.2
		c-0.1,0.7-0.2,1.4-0.2,2.1v1.8C6,269.7,7.1,270.9,8.5,271z M11.5,258.1c0.1-0.4,0.6-1,1-1c1-0.1,2-0.1,2.9,0c0.4,0.1,1,0.6,1,1
		c0.1,1,0.1,1.9,0,2.9c-0.1,0.4-0.5,0.9-1,1c-1,0.1-1.9,0.1-2.9,0c-0.5-0.1-0.9-0.6-1-1C11.4,260,11.4,259.1,11.5,258.1z M8,266.5
		c0-0.6,0-1.2,0.1-1.8c0.1-0.6,1-1.4,1.8-1.5c2.6-0.2,5.5-0.2,8.1,0c0.8,0.1,1.7,1,1.8,1.5c0.2,1.1,0.1,2.6,0.1,3.6
		c0,0.9-0.9,0.8-1.5,0.8v-3c0-0.3-0.2-0.5-0.5-0.5s-0.5,0.2-0.5,0.5v3c0,0.7,0,3,0,3.7c0,0.4-0.3,0.8-0.8,0.8H16c-0.6,0-1-0.4-1-1
		v-2c0-0.6-0.4-1-1-1s-1,0.4-1,1v2c0,0.6-0.4,1-1,1h-0.8c-0.4,0-0.8-0.4-0.8-0.8c0-0.7,0-3,0-3.7v-3c0-0.3-0.2-0.5-0.5-0.5
		s-0.5,0.2-0.5,0.5v3H8.8c-0.4,0-0.8-0.3-0.8-0.8V266.5z"/>
</g>
<g id="friends-hover_1_">
	<path class="st0" d="M46.7,241.1c-0.2-1.5-1.6-3-3.2-3.4c-0.2,0-0.4-0.1-0.6-0.1c0.5-0.6,0.9-1.2,0.9-1.9c0.2-1.4,0.2-2.8,0-4.3
		c-0.3-1.5-1.8-3-3.2-3.2l0,0c-1.4-0.2-2.8-0.2-4.2,0c-1.5,0.2-3,1.7-3.3,3.3c-0.2,1.4-0.2,2.8,0,4.2c0.1,0.7,0.5,1.3,0.9,1.9
		c-0.2,0-0.4,0.1-0.6,0.1c-1.5,0.3-3,1.9-3.2,3.4c-0.2,0.9-0.2,1.7-0.3,2.6l-0.1,0.6l0.5,0.3c2.4,1.6,5.2,2.5,8.1,2.5
		s5.7-0.8,8.1-2.5l0.5-0.4l-0.1-0.6C46.9,242.7,46.9,241.9,46.7,241.1z M35.1,231.6c0.1-0.7,1-1.5,1.5-1.5c0.6-0.1,1.2-0.1,1.8-0.1
		s1.3,0,1.9,0.1c0.6,0.1,1.4,0.9,1.5,1.5c0.1,1.2,0.1,2.5,0,3.7c-0.1,0.7-1,1.5-1.5,1.5c-1.2,0.1-2.5,0.1-3.7,0
		c-0.7-0.1-1.5-1-1.5-1.5C35,234.2,35,232.9,35.1,231.6z M32.1,243.2c0.1-0.6,0.1-1.2,0.3-1.9c0.1-0.7,0.9-1.6,1.6-1.7
		c3-0.7,6.1-0.7,9.1,0c0.8,0.2,1.6,1,1.7,1.8c0.1,0.6,0.2,1.2,0.2,1.8C41.1,245.6,35.9,245.5,32.1,243.2z"/>
	<path class="st0" d="M54,243.6c-0.1-0.8-0.2-1.7-0.3-2.5c-0.2-1.5-1.6-3-3.2-3.4c-0.2,0-0.4-0.1-0.6-0.1c0.5-0.6,0.9-1.2,0.9-1.9
		c0.2-1.4,0.2-2.8,0-4.3c-0.3-1.5-1.8-3-3.2-3.2l0,0c-1.1-0.1-2.2-0.1-3.2-0.1c0.5,0.6,1,1.2,1.2,2c0.6,0,1.2,0,1.8,0.1
		s1.4,0.9,1.5,1.5c0.1,1.2,0.1,2.5,0,3.7c-0.1,0.7-1,1.5-1.5,1.5c-0.3,0-0.6,0-0.9,0.1c0.8,0.6,1.4,1.4,1.8,2.3
		c0.6,0.1,1.2,0.2,1.8,0.3c0.8,0.2,1.6,1,1.7,1.8c0.1,0.6,0.2,1.2,0.2,1.8c-0.9,0.5-1.8,0.9-2.8,1.2l0.2,2.1
		c1.5-0.4,2.9-1.1,4.2-1.9l0.5-0.4L54,243.6z"/>
</g>
<g id="friends_1_">
	<path class="st2" d="M18.7,241.1c-0.2-1.5-1.6-3-3.2-3.4c-0.2,0-0.4-0.1-0.6-0.1c0.5-0.6,0.9-1.2,0.9-1.9c0.2-1.4,0.2-2.8,0-4.3
		c-0.3-1.5-1.8-3-3.2-3.2l0,0c-1.4-0.2-2.8-0.2-4.2,0c-1.5,0.2-3,1.7-3.3,3.3c-0.2,1.4-0.2,2.8,0,4.2c0.1,0.7,0.5,1.3,0.9,1.9
		c-0.2,0-0.4,0.1-0.6,0.1c-1.5,0.3-3,1.9-3.2,3.4C2,242,2,242.8,1.9,243.7l0.1,0.5l0.5,0.3c2.4,1.6,5.2,2.5,8.1,2.5s5.7-0.8,8.1-2.5
		l0.5-0.4l-0.1-0.6C18.9,242.7,18.9,241.9,18.7,241.1z M7.1,231.6c0.1-0.7,1-1.5,1.5-1.5c0.6-0.1,1.2-0.1,1.8-0.1s1.3,0,1.9,0.1
		c0.6,0.1,1.4,0.9,1.5,1.5c0.1,1.2,0.1,2.5,0,3.7c-0.1,0.7-1,1.5-1.5,1.5c-1.2,0.1-2.5,0.1-3.7,0c-0.7-0.1-1.5-1-1.5-1.5
		C7,234.2,7,232.9,7.1,231.6z M4.1,243.2c0.1-0.6,0.1-1.2,0.3-1.9c0.1-0.7,0.9-1.6,1.6-1.7c3-0.7,6.1-0.7,9.1,0
		c0.8,0.2,1.6,1,1.7,1.8c0.1,0.6,0.2,1.2,0.2,1.8C13.1,245.6,7.9,245.5,4.1,243.2z"/>
	<path class="st2" d="M26,243.6c-0.1-0.8-0.2-1.7-0.3-2.5c-0.2-1.5-1.6-3-3.2-3.4c-0.2,0-0.4-0.1-0.6-0.1c0.5-0.6,0.9-1.2,0.9-1.9
		c0.2-1.4,0.2-2.8,0-4.3c-0.3-1.5-1.8-3-3.2-3.2l0,0c-1.1-0.1-2.2-0.1-3.2-0.1c0.5,0.6,1,1.2,1.2,2c0.6,0,1.2,0,1.8,0.1
		c0.6,0.1,1.4,0.9,1.5,1.5c0.1,1.2,0.1,2.5,0,3.7c-0.1,0.7-1,1.5-1.5,1.5c-0.3,0-0.6,0-0.9,0.1c0.8,0.6,1.4,1.4,1.8,2.3
		c0.6,0.1,1.2,0.2,1.8,0.3c0.8,0.2,1.6,1,1.7,1.8c0.1,0.6,0.2,1.2,0.2,1.8c-0.9,0.5-1.8,0.9-2.8,1.2l0.2,2.1
		c1.5-0.4,2.9-1.1,4.2-1.9l0.5-0.4L26,243.6z"/>
</g>
<g id="messages-hover">
	<path class="st0" d="M45,199h-6c-4.4,0-8,3.6-8,8v14h14c4.4,0,8-3.6,8-8v-6C53,202.5,49.4,199,45,199z M51,213c0,3.3-2.7,6-6,6H33
		v-12c0-3.3,2.7-6,6-6h6c3.3,0,6,2.7,6,6V213z"/>
	<path class="st0" d="M47,209H37c-0.6,0-1,0.4-1,1c0,0.5,0.4,0.9,0.9,1H37h10c0.6,0,1-0.4,1-1S47.6,209,47,209z"/>
	<path class="st0" d="M47,205H37c-0.6,0-1,0.4-1,1c0,0.5,0.4,0.9,0.9,1H37h10c0.6,0,1-0.4,1-1S47.6,205,47,205z"/>
	<path class="st0" d="M42,213h-5c-0.6,0-1,0.4-1,1s0.4,1,1,1h5c0.6,0,1-0.4,1-1S42.6,213,42,213z"/>
</g>
<g id="messages_1_">
	<path class="st2" d="M17,199h-6c-4.4,0-8,3.6-8,8v14h14c4.4,0,8-3.6,8-8v-6C25,202.5,21.4,199,17,199z M23,213c0,3.3-2.7,6-6,6H5
		v-12c0-3.3,2.7-6,6-6h6c3.3,0,6,2.7,6,6V213z"/>
	<path class="st2" d="M19,209H9c-0.6,0-1,0.4-1,1c0,0.5,0.4,0.9,0.9,1H9h10c0.6,0,1-0.4,1-1S19.6,209,19,209z"/>
	<path class="st2" d="M19,205H9c-0.6,0-1,0.4-1,1c0,0.5,0.4,0.9,0.9,1H9h10c0.6,0,1-0.4,1-1S19.6,205,19,205z"/>
	<path class="st2" d="M14,213H9c-0.6,0-1,0.4-1,1s0.4,1,1,1h5c0.6,0,1-0.4,1-1S14.6,213,14,213z"/>
</g>
<path id="profile-hover_1_" class="st0" d="M52,189c-0.1-1.1-0.2-2.2-0.4-3.2c-0.2-1.8-1.8-3.6-3.6-4.1c-0.4-0.1-0.8-0.2-1.2-0.2
	c0.6-0.6,1-1.4,1.1-2.1c0.2-1.6,0.2-3.1,0-4.7c-0.3-1.7-1.9-3.2-3.5-3.5l0,0c-1.6-0.2-3.1-0.2-4.7,0c-1.7,0.2-3.3,1.9-3.5,3.5
	s-0.2,3.1,0,4.7c0.1,0.7,0.5,1.5,1.1,2.1c-0.4,0.1-0.8,0.1-1.2,0.2c-1.7,0.4-3.4,2.3-3.6,4.1c-0.2,1.1-0.3,2.2-0.4,3.3l-0.1,0.6
	l0.5,0.3c2.8,2,6.1,3.1,9.6,3.1c3.4,0,6.7-1.1,9.6-3.1l0.5-0.3L52,189z M38.1,174.9c0.1-0.8,1.1-1.7,1.8-1.8s1.4-0.1,2.1-0.1
	c0.7,0,1.4,0,2.1,0.1c0.8,0.1,1.6,1,1.8,1.8c0.2,1.3,0.2,2.8,0,4.2c-0.1,0.8-1.1,1.7-1.8,1.8c-1.4,0.2-2.8,0.2-4.2,0
	c-0.8-0.1-1.7-1.1-1.8-1.8C38,177.7,38,176.3,38.1,174.9z M42,191c-2.8,0-5.6-0.8-8-2.4c0.1-0.9,0.2-1.7,0.3-2.6
	c0.1-1,1.2-2.2,2.1-2.4c3.7-0.8,7.4-0.8,11,0c1,0.3,2,1.4,2.2,2.5c0.1,0.8,0.2,1.7,0.3,2.5C47.6,190.2,44.8,191,42,191z"/>
<path id="profile" class="st2" d="M24,189c-0.1-1.1-0.2-2.2-0.4-3.2c-0.2-1.8-1.8-3.6-3.6-4.1c-0.4-0.1-0.8-0.2-1.2-0.2
	c0.6-0.6,1-1.4,1.1-2.1c0.2-1.6,0.2-3.1,0-4.7c-0.3-1.7-1.9-3.2-3.5-3.5l0,0c-1.6-0.2-3.1-0.2-4.7,0c-1.7,0.2-3.3,1.9-3.5,3.5
	s-0.2,3.1,0,4.7c0.1,0.7,0.5,1.5,1.1,2.1c-0.4,0.1-0.8,0.1-1.2,0.2c-1.7,0.4-3.4,2.3-3.6,4.1C4.2,186.9,4.1,188,4,189v0.6l0.5,0.3
	c2.8,2,6.1,3.1,9.6,3.1c3.4,0,6.7-1.1,9.6-3.1l0.5-0.3L24,189z M10.1,174.9c0.1-0.8,1.1-1.7,1.8-1.8s1.4-0.1,2.1-0.1s1.4,0,2.1,0.1
	c0.8,0.1,1.6,1,1.8,1.8c0.2,1.3,0.2,2.8,0,4.2c-0.1,0.8-1.1,1.7-1.8,1.8c-1.4,0.2-2.8,0.2-4.2,0c-0.8-0.1-1.7-1.1-1.8-1.8
	C10,177.7,10,176.3,10.1,174.9z M14,191c-2.8,0-5.6-0.8-8-2.4c0.1-0.9,0.2-1.7,0.3-2.6c0.1-1,1.2-2.2,2.1-2.4c3.7-0.8,7.4-0.8,11,0
	c1,0.3,2,1.4,2.2,2.5c0.1,0.8,0.2,1.7,0.3,2.5C19.6,190.2,16.8,191,14,191z"/>
<g id="home-hover">
	<path class="st0" d="M42,144.6l9,7.4v12c0,0-0.1,0.1-0.2,0.1H46v-4c0-2.2-1.8-4-4-4s-4,1.8-4,4v4h-4.8c-0.1,0-0.2,0-0.2-0.1v-12
		L42,144.6 M42,142l-11,9v13c0,1.1,1,2,2.2,2H40v-6c0-1.1,0.9-2,2-2s2,0.9,2,2v6h6.8c1.2,0,2.2-0.9,2.2-2v-13L42,142L42,142z"/>
</g>
<g id="home_2_">
	<path class="st2" d="M14,144.6l9,7.4v12c0,0-0.1,0.1-0.2,0.1H18v-4c0-2.2-1.8-4-4-4s-4,1.8-4,4v4H5.2c-0.1,0-0.2,0-0.2-0.1v-12
		L14,144.6 M14,142l-11,9v13c0,1.1,1,2,2.2,2H12v-6c0-1.1,0.9-2,2-2s2,0.9,2,2v6h6.8c1.2,0,2.2-0.9,2.2-2v-13L14,142L14,142z"/>
</g>
</svg>
