<svg id="Logo" xmlns="http://www.w3.org/2000/svg" viewBox="0 0 243.76 256"><defs><style>.cls-1{fill:#080706;}.cls-2{fill:#ec6b24;}.cls-3{fill:#eb6a25;}</style></defs><path class="cls-1" d="M0,207.77c6-23.35,11.85-46.17,17.66-69,9.07-35.67,18-71.36,27.3-107,.71-2.72,3.26-5.48,5.69-7.15,11.46-7.9,23.12-15.52,34.83-23C90.84-1.83,95.1.38,95.81,7c1.12,10.31,2,20.64,2.84,31,.25,3.12,1.62,4.55,4.62,5.31,21.51,5.45,43,11,65.39,16.82,12-11.4,24.35-23.13,36.74-34.82,5.33-5,10.56-4,12.15,3.08,1.77,7.83,2.3,15.93,3.35,23.92a13.35,13.35,0,0,0,0,2.11c6.24,19.71-1.87,37.85-6.46,56.26-10.46,42-21.36,83.92-32.08,125.84,14.26,7.46,33.76.07,37.32-14,1.34-5.29.71-10.1-2.64-14.52-9.88-13.07-10.59-28.48-8.71-43.5.88-7,6.33-14,11.11-19.85s7.51-12.05,5.68-19.33c-4-16.08.44-31.51,3.2-47,.45-2.54,4-5.38,6.78-6.36,2-.7,6.21.77,7.21,2.53,1.48,2.61,1.57,6.4,1.25,9.59-.86,8.58-2.49,17.08-3.34,25.66-.33,3.4.35,7,1,10.39,2.71,14.25.32,26.82-10.72,37.22-6.63,6.23-7.37,14.3-5.81,23,1.15,6.43,1.63,13,6.1,18.26,10.72,12.67,7.36,40.8-11.6,51a50.61,50.61,0,0,1-37.41,4.85c-45.24-11.32-90.37-23.12-135.54-34.73Zm124.7-44.94,8.72-34.66L99,119.23c-3,11.9-5.76,23.21-8.63,34.76Zm55-99.64,34.1,8.66a34.75,34.75,0,0,0,0-3.57c-1.15-9-2.27-18.07-3.56-27.09-.2-1.41-1.15-3.83-1.82-3.85a7.13,7.13,0,0,0-4.45,1.85q-10.08,8.88-19.86,18.08C182.55,58.69,181.54,60.64,179.68,63.19ZM58.13,31.68l29.4,7.39c-.53-7.72-1-14.64-1.51-21.56-.23-2.9-2.1-3.59-4.44-2.31C75.29,18.62,69,22.07,62.92,25.83,61.25,26.85,60.27,29,58.13,31.68Z"/><path class="cls-2" d="M179.68,63.19c1.86-2.55,2.87-4.5,4.39-5.92q9.78-9.19,19.86-18.08a7.13,7.13,0,0,1,4.45-1.85c.67,0,1.62,2.44,1.82,3.85,1.29,9,2.41,18.06,3.56,27.09a34.75,34.75,0,0,1,0,3.57Z"/><path class="cls-3" d="M58.13,31.68c2.14-2.69,3.12-4.83,4.79-5.85C69,22.07,75.29,18.62,81.58,15.2c2.34-1.28,4.21-.59,4.44,2.31.56,6.92,1,13.84,1.51,21.56Z"/></svg>