<svg xmlns="http://www.w3.org/2000/svg" viewBox="0 0 1128.56 1771.03"><defs><style>.cls-1{fill:#3b3b3c;}.cls-2{fill:#fff;}.cls-3{fill:#070707;}.cls-4{fill:#020202;}</style></defs><g id="Legacy"><path class="cls-1" d="M0,1723.05c5.87-15.19,16.71-26.47,27.86-38,20.92-21.64,40.67-44.42,60.86-66.76,11.7-13,23.32-26,35.35-39.4-1.08-1.61-2.61-3.72-4-5.94-14.86-24.3-27.87-49.47-32.9-77.83-7.37-41.6-.44-80.21,25.06-114.83,11.42-15.49,23-31.06,40-40.57,21.51-12.06,44.14-22.2,68-28.62,10.08-2.7,21.06-2.52,31.65-2.69,5.29-.08,8.14-2,9.53-6.55q3.92-12.82,7.4-25.78c2.19-8.17,4-16.43,6.18-24.6,6.06-22.65,17.56-41.86,36.48-56.1,10.92-8.22,23.86-11.93,37.09-12.92,28.51-2.13,57.11-3.17,84.9,5.9,20.25,6.6,40.08,14.26,57.09,27.44,37,28.67,60.72,65.62,70.08,111.83,5.09,25.08,4.19,49.2-4.87,73.38-8.14,21.7-22.13,37.36-42.29,48.21-22.2,12-45.86,19.61-70.38,24.87-7.37,1.58-7.56,2.71-7.76,9.12-.69,22.41-.12,45.1-3.69,67.1-4.28,26.43-19.46,48.1-38.92,66.32-27.24,25.5-59.69,40.14-96.56,45.49-18.28,2.66-36.42,3.53-54.26-2-16.65-5.19-32.27-12.8-47.32-21.59-.84-.49-1.72-.93-3.09-1.67-14.95,16.87-30,33.71-44.9,50.67-19.11,21.76-37.94,43.75-57.24,65.33-6,6.71-11.66,14.57-21.34,16.36-16.87,3.11-33.68,3.21-48.3-7.3C11,1755.64,5.16,1746.55,1,1736.57A9.79,9.79,0,0,0,0,1735Zm400.19-224.28-1.52-.14c0-7.65-.16-15.31.08-23,.09-2.86-1-4.05-3.45-5.1-5.46-2.35-10.73-5.14-16.14-7.59-30.86-14-56.49-34-74.21-63.35q-16.06-26.62-32.43-53.08a6.36,6.36,0,0,0-4.41-2.52c-25.42-1.62-49,4.67-72.25,14.8-22.28,9.7-40.69,22.93-54.46,43.16-15,22-22.86,45.65-20.22,72.25,3.49,35.13,18.07,66.07,40.42,92.55,19.25,22.8,44.59,38.53,72.06,50.38,12,5.18,24.13,10.22,37.57,10.16,31.7-.12,60.41-9.74,85.85-28.39,18.36-13.46,33-30.53,37.9-53.25C398.3,1530.39,398.56,1514.43,400.19,1498.77Zm127.28-139a56.17,56.17,0,0,0,0-6.49c-4.63-39-18.48-73.43-49.07-99.85A141.16,141.16,0,0,0,443.89,1231c-25.94-11.68-53.22-14.77-81.23-13.41-10.83.53-21.4,2.51-30.67,8.73-11.89,8-17.47,20.13-21.2,33.27-4.61,16.24-8.7,32.64-13.34,48.87-1,3.42-1.2,6.11.68,9.24,9.23,15.36,18.06,31,27.47,46.22,9.07,14.72,18,29.72,30.87,41.51,18.3,16.75,40.71,26.46,63.49,35.32a8.69,8.69,0,0,0,4.89.37c22.21-5.34,44.23-11,65.19-20.65C516.4,1408.39,525.2,1386.24,527.47,1359.75ZM149.35,1606.62c-3,3.2-6,6.14-8.74,9.21q-37.46,41.49-74.87,83C57.84,1707.58,49.61,1716,42,1725c-4.12,4.82-2,8.19,4.55,9.19,7.19,1.11,12.19-1.65,16.76-6.93,19.93-23,40.1-45.78,60.12-68.69,12.34-14.12,24.58-28.32,37-42.66Z"/><path class="cls-1" d="M755.8,1636.72c-21,24-41.93,48.17-63.09,72.06-16,18-32.32,35.8-48.48,53.7-4.74,5.25-10.92,7.42-17.69,7.89-14.91,1.05-30.21,1.46-42.37-8.61-10.31-8.55-19.76-18.78-19.45-33.69a28.07,28.07,0,0,1,3.81-13.64,145.9,145.9,0,0,1,16-21.49c20.47-22.52,41.48-44.55,62-67,14.14-15.43,27.87-31.23,42.08-47.21-11.44-15.12-19.91-32.65-27-50.68-22.5-57.41-15.92-110.68,23.58-159.25,16.08-19.76,35.35-34.22,59.47-42.57,10.45-3.62,20.23-9.14,30.65-12.88,12.95-4.65,26.61-5.87,40.29-5,6.26.4,9.21-2.28,10.73-7.66,3-10.84,6.14-21.67,9-32.56,3.92-14.88,7.22-29.83,15-43.54,16.67-29.57,42.27-43,75.4-43.18,15.13-.11,30.32-.12,45.38,1.09,16.62,1.33,32.37,6.9,47.62,13.45,55.18,23.7,89.09,65.39,104.41,123.17,8.86,33.41,6.79,65.28-9.33,96.13-8.15,15.61-21.19,25.71-36.06,34-22,12.24-45.81,19.67-70.34,24.88-7.15,1.52-7.58,2.68-7.49,9.31.31,23.93,1.57,48.18-4.63,71.43-8.93,33.5-30,58.76-58.4,78.13-23.14,15.79-48.68,25.16-76.39,29.17-18.28,2.64-36.43,3.49-54.25-2.12-16.47-5.18-32-12.67-46.88-21.35C758.38,1638.12,757.38,1637.59,755.8,1636.72Z"/></g><g id="Dark"><path class="cls-2" d="M1128.56,761.53c-.71,31.67-7.87,55.16-23.41,75.68-7.55,9.95-18.24,16.39-29.07,22.23-21.49,11.59-44.61,18.71-68.34,24-8.54,1.91-7.88,2.21-7.81,10.93.11,14.26-.71,28.54-1.53,42.79-.51,8.74-.81,17.68-2.87,26.12-4.4,18-13.35,34-25.06,48.28-23,28.07-52.75,45.89-87.47,55.27-17.45,4.72-35.36,7.48-53.6,6.56-16.37-.82-31.45-6.39-46.13-13.08-8-3.65-15.73-8-23.44-12.24-2.85-1.59-4.56-1.31-6.72,1.16-10.85,12.35-22,24.46-32.8,36.83-11.47,13.11-22.66,26.46-34.07,39.63-8.37,9.66-16.79,19.28-25.38,28.75-5.79,6.38-11.54,12.87-18,18.49-3.47,3-8.36,5.77-12.76,6-11.86.72-23.79,1.52-35.58-2.29-11.4-3.68-17.63-12.48-24-21.42-9-12.61-7.56-25,1.43-36.78,5.29-6.93,11.08-13.51,17-20,15.34-16.81,31-33.37,46.28-50.21,10.83-11.91,21.31-24.15,32.05-36.14,6.53-7.3,13.37-14.32,19.8-21.7.81-.94.65-3.7-.14-4.91-14.28-22-26.3-45.2-32.62-70.74-7.13-28.83-7.58-57.83,2.11-86.36,6.51-19.15,17.61-35.71,30.09-51.35,11.62-14.56,25-27.36,42.44-34.68,18.48-7.76,37-15.75,56.05-21.78,9.85-3.11,21-2.63,31.53-2.9,5-.14,8-1.69,9.34-6.23,3.25-11,6.52-21.93,9.44-33,3.93-14.92,6.87-30.11,14.85-43.7,9.29-15.83,20.47-29.77,38.1-36.5a112.34,112.34,0,0,1,26.4-6.52c10.67-1.29,21.55-1,32.34-1.15,37.88-.44,72.17,11.45,103.74,31.53,8,5.1,14.72,12.37,21.85,18.83,26,23.51,42.06,52.87,50,86.72C1125.57,740.78,1127.26,754.11,1128.56,761.53Z"/><path class="cls-2" d="M0,1132.62c5.87-15.19,16.71-26.47,27.86-38,20.92-21.63,40.67-44.41,60.86-66.75,11.7-12.95,23.32-26,35.35-39.4-1.08-1.61-2.61-3.72-4-5.94-14.86-24.3-27.87-49.47-32.9-77.83-7.37-41.6-.44-80.21,25.06-114.83,11.42-15.5,23-31.07,40-40.58,21.51-12,44.14-22.2,68-28.61,10.08-2.71,21.06-2.52,31.65-2.69,5.29-.08,8.14-2,9.53-6.56q3.92-12.82,7.4-25.78c2.19-8.16,4-16.43,6.18-24.59,6.06-22.65,17.56-41.86,36.48-56.1,10.92-8.22,23.86-11.93,37.09-12.92,28.51-2.13,57.11-3.18,84.9,5.89,20.25,6.61,40.08,14.26,57.09,27.45C527.5,654,551.25,691,560.61,737.2c5.09,25.08,4.19,49.2-4.87,73.39-8.14,21.7-22.13,37.36-42.29,48.21-22.2,12-45.86,19.61-70.38,24.87-7.37,1.58-7.56,2.71-7.76,9.12-.69,22.4-.12,45.1-3.69,67.09-4.28,26.44-19.46,48.11-38.92,66.32-27.24,25.5-59.69,40.15-96.56,45.5-18.28,2.66-36.42,3.53-54.26-2-16.65-5.19-32.27-12.81-47.32-21.59-.84-.49-1.72-.93-3.09-1.67-14.95,16.86-30,33.71-44.9,50.67-19.11,21.75-37.94,43.75-57.24,65.33-6,6.7-11.66,14.57-21.34,16.36-16.87,3.11-33.68,3.21-48.3-7.3C11,1165.21,5.16,1156.12,1,1146.14a9.35,9.35,0,0,0-1-1.53ZM400.19,908.33l-1.52-.13c0-7.66-.16-15.32.08-23,.09-2.86-1-4-3.45-5.11-5.46-2.34-10.73-5.13-16.14-7.58-30.86-13.95-56.49-34-74.21-63.35q-16.06-26.62-32.43-53.08a6.36,6.36,0,0,0-4.41-2.52c-25.42-1.62-49,4.67-72.25,14.8-22.28,9.7-40.69,22.93-54.46,43.16-15,22-22.86,45.65-20.22,72.25,3.49,35.12,18.07,66.07,40.42,92.54,19.25,22.81,44.59,38.54,72.06,50.39,12,5.18,24.13,10.21,37.57,10.16,31.7-.12,60.41-9.74,85.85-28.39,18.36-13.46,33-30.53,37.9-53.25C398.3,940,398.56,924,400.19,908.33Zm127.28-139a56,56,0,0,0,0-6.48C522.81,723.78,509,689.4,478.37,663a141.16,141.16,0,0,0-34.48-22.38c-25.94-11.68-53.22-14.78-81.23-13.41-10.83.52-21.4,2.5-30.67,8.73-11.89,8-17.47,20.13-21.2,33.27-4.61,16.24-8.7,32.64-13.34,48.87-1,3.41-1.2,6.11.68,9.24,9.23,15.36,18.06,31,27.47,46.22,9.07,14.71,18,29.72,30.87,41.51,18.3,16.75,40.71,26.46,63.49,35.32a8.78,8.78,0,0,0,4.89.37c22.21-5.34,44.23-11,65.19-20.66C516.4,818,525.2,795.81,527.47,769.31ZM149.35,1016.19c-3,3.19-6,6.13-8.74,9.21q-37.46,41.49-74.87,83c-7.9,8.75-16.13,17.19-23.78,26.14-4.12,4.82-2,8.2,4.55,9.2,7.19,1.1,12.19-1.65,16.76-6.93,19.93-23,40.1-45.78,60.12-68.69,12.34-14.12,24.58-28.32,37-42.66C156.64,1022.29,153.11,1019.34,149.35,1016.19Z"/></g><g id="Light"><path class="cls-3" d="M0,542c5.87-15.19,16.71-26.47,27.86-38,20.92-21.64,40.67-44.41,60.86-66.76,11.7-13,23.32-26,35.35-39.4-1.08-1.61-2.61-3.72-4-5.94-14.86-24.29-27.87-49.47-32.9-77.83-7.37-41.6-.44-80.21,25.06-114.82,11.42-15.5,23-31.07,40-40.58,21.51-12.06,44.14-22.2,68-28.61,10.08-2.71,21.06-2.53,31.65-2.7,5.29-.08,8.14-2,9.53-6.55q3.92-12.83,7.4-25.78c2.19-8.17,4-16.43,6.18-24.6,6.06-22.65,17.56-41.86,36.48-56.1,10.92-8.22,23.86-11.93,37.09-12.92,28.51-2.13,57.11-3.17,84.9,5.9C453.69,14,473.52,21.62,490.53,34.8c37,28.67,60.72,65.62,70.08,111.83,5.09,25.08,4.19,49.2-4.87,73.38-8.14,21.7-22.13,37.36-42.29,48.21-22.2,11.95-45.86,19.62-70.38,24.88-7.37,1.58-7.56,2.7-7.76,9.12-.69,22.4-.12,45.1-3.69,67.09-4.28,26.43-19.46,48.1-38.92,66.32-27.24,25.5-59.69,40.14-96.56,45.5-18.28,2.65-36.42,3.52-54.26-2-16.65-5.19-32.27-12.8-47.32-21.59-.84-.49-1.72-.93-3.09-1.67-14.95,16.87-30,33.71-44.9,50.68-19.11,21.75-37.94,43.74-57.24,65.33-6,6.7-11.66,14.57-21.34,16.35-16.87,3.11-33.68,3.21-48.3-7.29C11,574.64,5.16,565.55,1,555.56A9.27,9.27,0,0,0,0,554ZM400.19,317.76l-1.52-.14c0-7.65-.16-15.31.08-23,.09-2.86-1-4.05-3.45-5.1-5.46-2.34-10.73-5.14-16.14-7.59-30.86-14-56.49-34-74.21-63.35Q288.89,192,272.52,165.54a6.31,6.31,0,0,0-4.41-2.51c-25.42-1.63-49,4.66-72.25,14.8-22.28,9.7-40.69,22.92-54.46,43.15-15,22-22.86,45.65-20.22,72.25,3.49,35.13,18.07,66.07,40.42,92.55,19.25,22.8,44.59,38.53,72.06,50.38,12,5.18,24.13,10.22,37.57,10.17,31.7-.13,60.41-9.75,85.85-28.4,18.36-13.46,33-30.53,37.9-53.25C398.3,349.38,398.56,333.42,400.19,317.76Zm127.28-139a56.19,56.19,0,0,0,0-6.49c-4.63-39-18.48-73.43-49.07-99.85A140.83,140.83,0,0,0,443.89,50C418,38.34,390.67,35.25,362.66,36.61c-10.83.53-21.4,2.51-30.67,8.74-11.89,8-17.47,20.12-21.2,33.26-4.61,16.25-8.7,32.64-13.34,48.88-1,3.41-1.2,6.1.68,9.23,9.23,15.36,18.06,31,27.47,46.23,9.07,14.71,18,29.71,30.87,41.5,18.3,16.75,40.71,26.46,63.49,35.32a8.69,8.69,0,0,0,4.89.37c22.21-5.34,44.23-11,65.19-20.65C516.4,227.38,525.2,205.23,527.47,178.74ZM149.35,425.61c-3,3.2-6,6.14-8.74,9.21q-37.46,41.49-74.87,83C57.84,526.57,49.61,535,42,544c-4.12,4.82-2,8.2,4.55,9.19,7.19,1.11,12.19-1.65,16.76-6.93,19.93-23,40.1-45.78,60.12-68.69,12.34-14.12,24.58-28.32,37-42.66Z"/><path class="cls-4" d="M755.8,455.72c-21,24-41.93,48.16-63.09,72.06-16,18.05-32.32,35.8-48.48,53.69-4.74,5.25-10.92,7.42-17.69,7.9-14.91,1-30.21,1.45-42.37-8.62-10.31-8.55-19.76-18.78-19.45-33.69a28.07,28.07,0,0,1,3.81-13.64,145.9,145.9,0,0,1,16-21.49c20.47-22.51,41.48-44.54,62-67,14.14-15.44,27.87-31.24,42.08-47.22-11.44-15.12-19.91-32.65-27-50.67-22.5-57.42-15.92-110.69,23.58-159.25,16.08-19.77,35.35-34.23,59.47-42.58,10.45-3.61,20.23-9.14,30.65-12.88,12.95-4.65,26.61-5.87,40.29-5,6.26.4,9.21-2.28,10.73-7.66,3-10.84,6.14-21.67,9-32.56,3.92-14.88,7.22-29.83,15-43.54C867,14,892.59.63,925.72.41,940.85.31,956,.3,971.1,1.5c16.62,1.33,32.37,6.9,47.62,13.45,55.18,23.71,89.09,65.39,104.41,123.18,8.86,33.4,6.79,65.27-9.33,96.13-8.15,15.61-21.19,25.71-36.06,34-22,12.24-45.81,19.67-70.34,24.88-7.15,1.52-7.58,2.68-7.49,9.31.31,23.93,1.57,48.18-4.63,71.43-8.93,33.5-30,58.76-58.4,78.13-23.14,15.79-48.68,25.16-76.39,29.17-18.28,2.65-36.43,3.49-54.25-2.11-16.47-5.18-32-12.68-46.88-21.36C758.38,457.11,757.38,456.58,755.8,455.72Z"/></g></svg>